HIERARCHY
ROOT Hips
{
	OFFSET -246.947098 92.295853 298.950195
	CHANNELS 6 Xposition Yposition Zposition Zrotation Yrotation Xrotation 
	JOINT LeftUpLeg
	{
		OFFSET 0.103455 1.857832 10.548509
		CHANNELS 3 Zrotation Yrotation Xrotation
		JOINT LeftLeg
		{
			OFFSET 43.500000 -0.000038 0.000000
			CHANNELS 3 Zrotation Yrotation Xrotation
			JOINT LeftFoot
			{
				OFFSET 42.372196 0.000027 -0.000005
				CHANNELS 3 Zrotation Yrotation Xrotation
				JOINT LeftToe
				{
					OFFSET 17.300005 0.000000 0.000006
					CHANNELS 3 Zrotation Yrotation Xrotation
					End Site
					{
						OFFSET 0.000000 0.000000 0.000000
					}
				}
			}
		}
	}
	JOINT RightUpLeg
	{
		OFFSET 0.103456 1.857826 -10.548491
		CHANNELS 3 Zrotation Yrotation Xrotation
		JOINT RightLeg
		{
			OFFSET 43.500046 0.000000 0.000031
			CHANNELS 3 Zrotation Yrotation Xrotation
			JOINT RightFoot
			{
				OFFSET 42.372269 -0.000023 0.000007
				CHANNELS 3 Zrotation Yrotation Xrotation
				JOINT RightToe
				{
					OFFSET 17.299986 -0.000008 -0.000004
					CHANNELS 3 Zrotation Yrotation Xrotation
					End Site
					{
						OFFSET 0.000000 0.000000 0.000000
					}
				}
			}
		}
	}
	JOINT Spine
	{
		OFFSET 6.901961 -2.603715 -0.000002
		CHANNELS 3 Zrotation Yrotation Xrotation
		JOINT Spine1
		{
			OFFSET 12.588100 -0.000008 0.000001
			CHANNELS 3 Zrotation Yrotation Xrotation
			JOINT Spine2
			{
				OFFSET 12.343203 -0.000016 0.000001
				CHANNELS 3 Zrotation Yrotation Xrotation
				JOINT Neck
				{
					OFFSET 25.832899 0.000013 -0.000005
					CHANNELS 3 Zrotation Yrotation Xrotation
					JOINT Head
					{
						OFFSET 11.766600 0.000004 0.000007
						CHANNELS 3 Zrotation Yrotation Xrotation
						End Site
						{
							OFFSET 0.000000 0.000000 0.000000
						}
					}
				}
				JOINT LeftShoulder
				{
					OFFSET 19.745905 -1.480350 6.000103
					CHANNELS 3 Zrotation Yrotation Xrotation
					JOINT LeftArm
					{
						OFFSET 11.284127 0.000012 -0.000026
						CHANNELS 3 Zrotation Yrotation Xrotation
						JOINT LeftForeArm
						{
							OFFSET 33.000061 -0.000016 0.000035
							CHANNELS 3 Zrotation Yrotation Xrotation
							JOINT LeftHand
							{
								OFFSET 25.199999 0.000022 0.000000
								CHANNELS 3 Zrotation Yrotation Xrotation
								End Site
								{
									OFFSET 0.000000 0.000000 0.000000
								}
							}
						}
					}
				}
				JOINT RightShoulder
				{
					OFFSET 19.746105 -1.480368 -6.000077
					CHANNELS 3 Zrotation Yrotation Xrotation
					JOINT RightArm
					{
						OFFSET 11.284150 -0.000028 -0.000009
						CHANNELS 3 Zrotation Yrotation Xrotation
						JOINT RightForeArm
						{
							OFFSET 33.000080 0.000039 0.000015
							CHANNELS 3 Zrotation Yrotation Xrotation
							JOINT RightHand
							{
								OFFSET 25.199778 0.000128 0.000429
								CHANNELS 3 Zrotation Yrotation Xrotation
								End Site
								{
									OFFSET 0.000000 0.000000 0.000000
								}
							}
						}
					}
				}
			}
		}
	}
}
MOTION
Frames: 14
Frame Time: 0.033333
337.072205 81.367493 68.191856 87.831458 -10.061418 -87.777445 144.235850 -19.254305 162.083763 -62.028547 -2.834314 1.415777 87.228175 -2.157740 -6.772527 21.454550 0.003093 -0.000001 149.169501 9.618815 -171.096211 -55.471890 -2.241385 -0.590675 85.950288 0.912632 2.050145 21.454558 -0.003098 -0.000015 13.610363 -0.079306 1.085036 17.204953 -0.319285 2.146119 16.887078 -0.306167 2.148009 3.910945 3.656238 6.365888 -33.803218 -13.381189 14.482439 171.105815 -86.812852 7.281292 -7.528919 31.720099 73.039017 -95.277546 -0.649399 2.585245 39.482175 -32.342127 -56.753985 141.436115 77.209107 -37.771312 -11.861227 -36.428951 -7.174541 -90.357249 6.885796 -2.844512 -1.684955 -12.376712 -40.362381 
337.396301 81.536324 73.093803 87.889768 -11.538229 -87.134048 145.465476 -21.570099 164.479739 -75.724340 -3.523197 2.896485 89.497232 -2.960035 -6.423543 21.454551 0.003086 -0.000000 149.733210 9.797500 -166.259386 -50.680752 -4.508438 -2.318839 80.683372 2.059331 1.214005 21.454562 -0.003119 -0.000021 13.694397 -0.088225 0.791864 17.373997 -0.294528 1.561429 17.056032 -0.284963 1.563188 4.411556 2.694324 5.785820 -33.414040 -12.233339 13.047959 -173.703008 -87.042558 -7.986788 -5.375896 30.710545 70.457083 -93.140981 -1.282539 2.534423 23.732930 -29.455102 -38.331090 137.847424 77.354208 -41.394105 -14.698830 -37.322025 -3.969966 -87.629934 9.894394 -2.934290 2.532246 -4.125947 -60.839172 
337.491791 81.854538 78.426369 86.326898 -12.980776 -86.668093 149.984179 -20.226195 163.316872 -83.849738 -1.208690 3.800848 90.788848 -3.457976 -5.792274 21.454551 0.003098 0.000000 150.431679 9.921597 -170.085917 -44.946692 -3.189013 -0.727539 76.210554 1.704593 3.855902 21.454555 -0.003095 -0.000014 13.731889 -0.498080 0.582201 17.446578 -1.078337 1.082561 17.128480 -1.071640 1.089061 5.329358 1.459687 5.197095 -31.675183 -11.348393 11.545876 -155.012058 -87.463564 -26.756148 -4.248745 28.565844 63.853089 -90.576027 -2.283341 2.490474 8.098706 -15.688419 -11.757018 142.756295 77.111907 -36.440425 -15.636610 -36.863586 -0.887801 -87.545308 10.494817 -2.972959 3.137750 -2.888321 -75.212479 
337.366699 82.370163 83.970680 86.020345 -13.020938 -86.244348 154.639321 -17.137814 164.946268 -85.938512 -0.105112 7.513038 88.649961 -6.391376 -7.061435 21.454557 0.003092 -0.000001 151.114493 9.426692 -172.239558 -37.448428 -2.282898 0.682065 75.029553 1.260968 5.751672 21.454557 -0.003102 -0.000015 13.305990 -0.607530 0.469508 16.595422 -1.276191 0.846931 16.277285 -1.270928 0.854630 7.137733 -0.492690 4.522930 -30.671880 -10.092395 9.844586 -138.964502 -87.521006 -42.861056 -4.192360 27.444614 54.435962 -87.968240 -3.940236 2.490887 6.542642 6.012461 3.419403 145.571808 77.765829 -33.542414 -14.896571 -35.738248 1.162386 -88.274102 9.295378 -2.920840 2.625347 -6.539624 -65.032458 
337.174194 82.653976 89.569206 86.168792 -13.433392 -86.002047 161.183981 -13.486609 166.182464 -80.041737 -0.610871 11.226644 79.284085 -10.452705 -9.885369 21.454557 0.003096 0.000001 152.721418 9.610593 -171.469304 -30.207854 -1.034770 1.539801 79.004935 0.214191 4.969037 21.454558 -0.003119 -0.000019 12.926748 -0.628613 0.334794 15.838372 -1.297188 0.580289 15.520196 -1.293524 0.588114 8.976186 -2.143853 3.942378 -29.259151 -9.224371 8.516410 -132.679047 -86.784964 -49.206892 -5.917139 26.076303 46.794449 -84.138935 -6.151358 2.477060 8.573914 14.547299 12.072370 144.929852 78.441711 -34.147715 -14.636349 -31.586305 -0.344944 -88.136973 8.653110 -2.869439 2.988732 -11.498702 -45.295325 
337.137390 81.840652 95.026657 85.183503 -13.026211 -87.010886 167.329444 -7.896901 165.401118 -68.014908 -1.283596 10.834459 92.111774 -6.774648 3.311098 21.454551 0.003085 0.000001 151.821267 10.572694 -167.637991 -26.431019 -1.653152 2.071018 84.680733 -0.307283 5.456954 21.454560 -0.003100 -0.000015 12.354233 -1.020268 0.401189 14.691916 -2.083238 0.669471 14.373623 -2.079028 0.682054 10.335105 -2.563924 3.677321 -27.931024 -8.661762 7.836150 -127.682709 -86.613082 -54.233485 -7.171854 25.805483 41.138605 -78.878160 -9.122070 2.456216 8.191402 9.595344 15.614591 142.525872 79.002626 -36.542400 -14.743375 -25.780687 -1.570510 -88.465607 8.172847 -2.850350 -0.035143 -18.818385 -35.083714 
337.026215 81.163017 100.888802 84.754786 -13.366996 -87.785143 168.059782 -4.290201 163.855063 -61.625013 -1.451058 5.544583 101.550105 -3.237289 6.366063 21.454551 0.003099 0.000001 148.742450 11.355378 -164.006366 -30.938674 -3.006069 5.154418 85.407445 -2.098292 7.481048 21.454557 -0.003111 -0.000019 12.146508 -1.249054 0.308954 14.278532 -2.526668 0.461274 13.960098 -2.523700 0.476546 9.868221 -1.996138 4.345246 -27.515948 -8.521481 8.470041 -122.687696 -86.598316 -59.248947 -7.226024 27.343949 36.594825 -71.601590 -12.668255 2.395752 5.282537 -1.618987 10.073577 134.050809 79.587222 -45.060578 -16.254325 -19.369764 -0.127251 -90.288332 7.151695 -2.860103 -2.143445 -19.047827 -35.410566 
337.035614 81.081146 107.128601 83.887871 -15.851510 -86.127524 164.594964 0.221998 171.348300 -61.560242 -1.542930 1.783434 97.142393 -0.738296 4.284454 21.454553 0.003100 -0.000000 146.756450 13.631004 -163.840761 -46.765721 -5.550656 2.336585 88.251563 -0.551816 5.512419 21.454560 -0.003119 -0.000021 12.817715 -1.323188 0.075199 15.627068 -2.644363 -0.029297 15.308612 -2.644360 -0.013288 8.952213 0.461049 4.702294 -28.938477 -10.018901 9.905207 -134.804903 -86.493288 -47.087003 -10.800338 27.976882 33.703012 -61.461806 -15.896282 2.214625 4.344102 -8.179813 2.636057 127.927326 80.847167 -51.130369 -19.365951 -13.988542 3.967198 -90.747772 7.050088 -2.873541 -2.515094 -14.571775 -40.598054 
337.373413 81.634598 113.593597 85.045882 -18.005031 -86.174373 162.124239 -0.276992 176.084244 -59.909242 -3.713080 0.932422 90.142726 0.049209 3.756859 21.454551 0.003084 0.000003 147.395195 10.920192 -171.860865 -61.691423 -3.931237 2.638230 90.414936 -0.692579 6.592671 21.454557 -0.003097 -0.000015 13.272997 -1.042077 0.476374 16.528540 -2.141553 0.798860 16.210245 -2.136558 0.811814 10.356910 4.551543 4.806015 -29.567220 -12.734543 11.741580 173.976106 -88.013968 4.364261 -12.560483 29.865907 36.481355 -50.112388 -18.406871 1.981229 5.558132 -8.017631 7.222361 128.346986 81.688776 -50.639542 -24.001881 -9.631555 6.909604 -87.763218 9.119375 -2.885582 -2.844266 -9.402533 -43.325830 
337.811401 82.952263 120.945396 85.272706 -17.763133 -87.265564 160.468150 -0.948297 170.345860 -52.518943 -0.540963 2.507824 81.909630 -0.758270 4.102231 21.454551 0.003093 0.000000 148.837485 8.026706 -178.872259 -70.565423 -2.920241 1.643585 91.222238 0.336729 9.248427 21.454558 -0.003101 -0.000016 13.047562 -0.949162 0.645741 16.074647 -1.978877 1.153299 15.756425 -1.971747 1.165239 13.123191 6.990870 5.244053 -28.026213 -15.549201 13.354498 144.056599 -87.464254 34.399626 -11.790126 33.505466 43.681457 -39.860209 -18.319331 1.670540 6.221576 -5.765110 7.524577 123.688852 81.680129 -55.323631 -31.597483 -6.775724 7.990807 -83.148599 12.449535 -2.915159 -1.321019 -4.797974 -44.466744 
338.465607 83.811752 128.802399 85.217012 -15.560382 -85.278354 156.017326 -0.179211 171.075188 -44.953150 -0.604965 2.876515 70.520494 -0.938286 3.175498 21.454555 0.003089 -0.000000 151.117949 6.757184 177.224325 -74.638142 -4.335783 -4.721505 90.293325 5.861081 14.997393 21.454551 -0.003095 -0.000018 12.555997 -0.599855 0.198488 15.098273 -1.220507 0.316902 14.780113 -1.218445 0.324276 14.546196 8.177065 5.461389 -27.489771 -18.239283 14.730420 157.922593 -86.941553 20.517589 -8.668443 38.930791 46.793599 -32.217439 -16.961112 1.400371 6.791156 -3.029646 1.719175 116.155454 80.767731 -62.968600 -37.530342 -4.636476 11.035580 -81.949095 13.804156 -2.958043 -0.575970 -1.452045 -50.286486 
338.807312 83.543083 136.353607 85.780762 -13.206099 -82.923223 151.090615 -0.243899 176.043604 -39.856261 -4.221211 3.055565 67.633763 -3.985622 -5.199329 21.454551 0.003098 -0.000000 155.379099 5.492792 172.079704 -73.302703 -4.763025 -13.804097 88.253086 13.371085 19.035522 21.454557 -0.003101 -0.000017 12.246712 -0.158237 0.286675 14.479786 -0.351182 0.551224 14.161703 -0.347719 0.553348 11.754488 11.577304 4.562326 -26.395068 -21.575753 15.515816 152.193881 -87.038658 26.263030 -1.400261 46.208815 46.502738 -28.484925 -17.446941 1.357488 8.349128 -7.530577 -4.360645 120.681274 80.816670 -58.419619 -40.894959 -1.306935 15.812482 -84.892216 12.651597 -3.007252 -3.792765 2.218008 -54.123478 
338.400604 82.661713 143.740097 86.074802 -11.747462 -82.478762 145.214125 -0.168703 174.386122 -47.000359 -5.414671 1.889680 72.362979 -3.708427 -7.832241 21.454551 0.003078 0.000000 162.167433 4.618801 166.579844 -62.779390 -3.601652 -14.173133 94.023967 9.851345 0.360595 21.454557 -0.003117 -0.000017 12.095503 0.160442 0.904521 14.179864 0.208624 1.821831 13.861930 0.219749 1.820556 7.669803 13.518088 3.309665 -24.589880 -24.236004 15.591302 169.713726 -87.201025 8.666902 7.684932 52.469582 50.247864 -24.605166 -16.144025 1.208728 10.176546 -10.516609 -15.934666 117.419421 81.132682 -61.667886 -42.776737 2.832534 18.283778 -86.324124 11.528627 -2.991546 -10.958296 9.373301 -48.493192 
337.883514 81.771477 150.961502 87.310014 -11.147116 -85.162125 139.698419 -3.938912 164.425070 -65.156890 -2.390824 0.522028 77.497170 -1.792604 -5.609342 21.454551 0.003097 -0.000002 162.309692 4.500399 167.053436 -53.732600 -5.385561 -10.369112 103.520799 7.462611 6.630800 21.454558 -0.003110 -0.000018 11.950143 0.481165 2.178867 13.901185 0.696650 4.399742 13.584070 0.723328 4.395473 5.045135 12.197181 3.008495 -22.949036 -24.147888 14.970721 -171.445931 -87.176450 -10.255205 18.866138 56.384783 60.566989 -18.873780 -12.770044 0.918780 12.067183 -6.346038 -21.083426 100.814787 81.006057 -78.314184 -44.405167 7.197140 14.955039 -81.073348 14.175734 -2.945625 -22.769911 21.538518 -40.352341 
